<svg width="22" height="26" viewBox="0 0 22 26" fill="none" xmlns="http://www.w3.org/2000/svg">
<path fill-rule="evenodd" clip-rule="evenodd" d="M20.7201 19.72L19.0001 18V11.3333C19.0001 7.24 16.8134 3.81333 13.0001 2.90667V2C13.0001 0.893333 12.1067 0 11.0001 0C9.8934 0 9.00007 0.893333 9.00007 2V2.90667C5.1734 3.81333 3.00007 7.22667 3.00007 11.3333V18L1.28007 19.72C0.440069 20.56 1.02674 22 2.2134 22H19.7734C20.9734 22 21.5601 20.56 20.7201 19.72ZM5.66674 19.3333V11.3333C5.66674 8.02667 7.68007 5.33333 11.0001 5.33333C14.3201 5.33333 16.3334 8.02667 16.3334 11.3333V19.3333H5.66674ZM13.6667 23.3333C13.6667 24.8 12.4667 26 11.0001 26C9.52007 26 8.3334 24.8 8.3334 23.3333H13.6667Z" fill="black" fill-opacity="0.56"/>
</svg>
