<svg width="20" height="20" viewBox="0 0 20 20" fill="none" xmlns="http://www.w3.org/2000/svg">
<path fill-rule="evenodd" clip-rule="evenodd" d="M10.0003 0.666748C11.027 0.666748 11.867 1.50675 11.867 2.53341V17.4667C11.867 18.4934 11.027 19.3334 10.0003 19.3334C8.97366 19.3334 8.13366 18.4934 8.13366 17.4667V2.53341C8.13366 1.50675 8.97366 0.666748 10.0003 0.666748ZM2.53366 6.26675H2.80033C3.82699 6.26675 4.66699 7.10675 4.66699 8.13341V17.4667C4.66699 18.4934 3.82699 19.3334 2.80033 19.3334H2.53366C1.50699 19.3334 0.666992 18.4934 0.666992 17.4667V8.13341C0.666992 7.10675 1.50699 6.26675 2.53366 6.26675ZM19.3337 13.2001C19.3337 12.1734 18.4937 11.3334 17.467 11.3334C16.4403 11.3334 15.6003 12.1734 15.6003 13.2001V17.4667C15.6003 18.4934 16.4403 19.3334 17.467 19.3334C18.4937 19.3334 19.3337 18.4934 19.3337 17.4667V13.2001Z" fill="black" fill-opacity="0.54"/>
</svg>
