<svg width="22" height="41" viewBox="0 0 22 41" fill="none" xmlns="http://www.w3.org/2000/svg">
<path d="M2.75 37.625C2.75 37.4179 2.91789 37.25 3.125 37.25H18.875C19.0821 37.25 19.25 37.4179 19.25 37.625C19.25 37.8321 19.0821 38 18.875 38H3.125C2.91789 38 2.75 37.8321 2.75 37.625Z" fill="#87E0A5"/>
<path d="M7.84277 1.14916V2.77206H14.3344V1.14916C14.3344 0.629832 13.9016 0.5 13.6852 0.5H8.49193C7.97261 0.5 7.84277 0.932773 7.84277 1.14916Z" fill="#323232" stroke="#323232" stroke-width="0.64916"/>
<rect x="2" y="5.36865" width="18.1765" height="33.7563" rx="2.59664" stroke="#323232" stroke-width="2.59664"/>
<path d="M15.0399 22.9271L11.263 16.25V21.0193H7.25L11.263 27.9349V22.9271H15.0399Z" fill="#323232" stroke="#323232" stroke-width="0.48687"/>
</svg>
