<svg width="20" height="28" viewBox="0 0 20 28" fill="none" xmlns="http://www.w3.org/2000/svg">
<path fill-rule="evenodd" clip-rule="evenodd" d="M10.0003 0.666748C4.85366 0.666748 0.666992 4.85342 0.666992 10.0001C0.666992 13.1734 2.25366 15.9601 4.66699 17.6534V20.6667C4.66699 21.4001 5.26699 22.0001 6.00033 22.0001H14.0003C14.7337 22.0001 15.3337 21.4001 15.3337 20.6667V17.6534C17.747 15.9601 19.3337 13.1734 19.3337 10.0001C19.3337 4.85342 15.147 0.666748 10.0003 0.666748ZM6.00033 26.0001C6.00033 26.7334 6.60033 27.3334 7.33366 27.3334H12.667C13.4003 27.3334 14.0003 26.7334 14.0003 26.0001V24.6667H6.00033V26.0001ZM12.667 16.2667L13.8003 15.4667C15.6003 14.2134 16.667 12.1734 16.667 10.0001C16.667 6.32008 13.6803 3.33341 10.0003 3.33341C6.32033 3.33341 3.33366 6.32008 3.33366 10.0001C3.33366 12.1734 4.40033 14.2134 6.20033 15.4667L7.33366 16.2667V19.3334H12.667V16.2667Z" fill="black" fill-opacity="0.54"/>
</svg>
