<svg width="28" height="22" viewBox="0 0 28 22" fill="none" xmlns="http://www.w3.org/2000/svg">
<path fill-rule="evenodd" clip-rule="evenodd" d="M24.6665 0.333496H3.33317C1.8665 0.333496 0.679837 1.5335 0.679837 3.00016L0.666504 19.0002C0.666504 20.4668 1.8665 21.6668 3.33317 21.6668H24.6665C26.1332 21.6668 27.3332 20.4668 27.3332 19.0002V3.00016C27.3332 1.5335 26.1332 0.333496 24.6665 0.333496ZM24.6665 17.6668C24.6665 18.4002 24.0665 19.0002 23.3332 19.0002H4.6665C3.93317 19.0002 3.33317 18.4002 3.33317 17.6668V5.66683L12.5865 11.4535C13.4532 12.0002 14.5465 12.0002 15.4132 11.4535L24.6665 5.66683V17.6668ZM3.33317 3.00016L13.9998 9.66683L24.6665 3.00016H3.33317Z" fill="black" fill-opacity="0.56"/>
</svg>
