<svg width="26" height="28" viewBox="0 0 26 28" fill="none" xmlns="http://www.w3.org/2000/svg">
<path fill-rule="evenodd" clip-rule="evenodd" d="M23.0027 14.0001C23.0027 14.4534 22.9627 14.8801 22.9094 15.3067L25.7227 17.5067C25.976 17.7067 26.0427 18.0667 25.8827 18.3601L23.216 22.9734C23.056 23.2667 22.7094 23.3867 22.4027 23.2668L19.0827 21.9334C18.3894 22.4534 17.6427 22.9067 16.8294 23.2401L16.3227 26.7734C16.2827 27.0934 16.0027 27.3334 15.6694 27.3334H10.336C10.0027 27.3334 9.72272 27.0934 9.68272 26.7734L9.17605 23.2401C8.36272 22.9067 7.61605 22.4667 6.92272 21.9334L3.60272 23.2668C3.30938 23.3734 2.94938 23.2667 2.78938 22.9734L0.122716 18.3601C-0.0372844 18.0667 0.0293822 17.7067 0.282716 17.5067L3.09605 15.3067C3.04272 14.8801 3.00272 14.4401 3.00272 14.0001C3.00272 13.5601 3.04272 13.1201 3.09605 12.6934L0.282716 10.4934C0.0293822 10.2934 -0.0506178 9.93342 0.122716 9.64008L2.78938 5.02675C2.94938 4.73341 3.29605 4.61341 3.60272 4.73341L6.92272 6.06675C7.61605 5.54675 8.36272 5.09341 9.17605 4.76008L9.68272 1.22675C9.72272 0.906748 10.0027 0.666748 10.336 0.666748H15.6694C16.0027 0.666748 16.2827 0.906748 16.3227 1.22675L16.8294 4.76008C17.6427 5.09341 18.3894 5.53342 19.0827 6.06675L22.4027 4.73341C22.696 4.62675 23.056 4.73341 23.216 5.02675L25.8827 9.64008C26.0427 9.93342 25.976 10.2934 25.7227 10.4934L22.9094 12.6934C22.9627 13.1201 23.0027 13.5467 23.0027 14.0001ZM8.33605 14.0001C8.33605 16.5734 10.4294 18.6667 13.0027 18.6667C15.576 18.6667 17.6694 16.5734 17.6694 14.0001C17.6694 11.4267 15.576 9.33341 13.0027 9.33341C10.4294 9.33341 8.33605 11.4267 8.33605 14.0001Z" fill="black" fill-opacity="0.54"/>
</svg>
